<svg width="18" height="18" viewBox="0 0 18 18" fill="none" xmlns="http://www.w3.org/2000/svg">
<path d="M13.1688 4.05C13.1688 6.27188 11.3062 8.08594 8.99265 8.08594V8.07187C6.6936 8.07187 4.81653 6.25781 4.81653 4.03594C4.81653 1.81406 6.67905 0 8.99265 0C11.3062 0 13.1688 1.82812 13.1688 4.05Z" fill="#676D84"/>
<path d="M8.99248 9.49219C12.7175 9.49219 15.3076 11.0953 15.3076 11.0953H15.3221C17.6357 12.4594 17.9995 12.9094 17.9995 14.6672V14.8078C17.9995 16.5656 16.7918 18 15.3221 18H2.67737C1.20773 18 0 16.5656 0 14.8078V14.6672C0 12.9234 0.436528 12.5016 2.67737 11.0953C2.67737 11.0953 5.26744 9.49219 8.99248 9.49219Z" fill="#676D84"/>
</svg>
