<svg width="18" height="18" viewBox="0 0 18 18" fill="none" xmlns="http://www.w3.org/2000/svg">
<path d="M6.06045 9.00002C6.06045 7.37273 7.37279 6.06039 9.00009 6.06039C10.6274 6.06039 11.9397 7.37273 11.9397 9.00002C11.9397 10.6273 10.6274 11.9397 9.00009 11.9397C7.37279 11.9397 6.06045 10.6273 6.06045 9.00002Z" fill="#676D84"/>
<path fill-rule="evenodd" clip-rule="evenodd" d="M15.7717 6.19685L17.5984 8.02362C18.1339 8.55905 18.1339 9.44094 17.5984 9.97638L15.7717 11.8031V14.3963C15.7717 15.1522 15.1522 15.7717 14.3963 15.7717H11.8031L9.97638 17.5984C9.44094 18.1339 8.55905 18.1339 8.02362 17.5984L6.19685 15.7717H3.60367C2.84777 15.7717 2.22835 15.1522 2.22835 14.3963V11.8031L0.401575 9.97638C-0.133858 9.44094 -0.133858 8.55905 0.401575 8.02362L2.22835 6.19685V3.60367C2.22835 2.84777 2.84777 2.22835 3.60367 2.22835H6.19685L8.02362 0.401575C8.55905 -0.133858 9.44094 -0.133858 9.97638 0.401575L11.8031 2.22835H14.3963C15.1522 2.22835 15.7717 2.84777 15.7717 3.60367V6.19685ZM4.83202 9C4.83202 11.2992 6.69029 13.1575 8.9895 13.1575C11.2887 13.1575 13.147 11.2992 13.147 9C13.147 6.70079 11.2887 4.84252 8.9895 4.84252C6.69029 4.84252 4.83202 6.70079 4.83202 9Z" fill="#676D84"/>
</svg>
