<svg width="18" height="18" viewBox="0 0 18 18" fill="none" xmlns="http://www.w3.org/2000/svg">
<path d="M15.1758 0H16.8658C17.4922 0 18 0.527412 18 1.17801V16.822C18 17.4725 17.4922 18 16.8658 18H15.1758C14.5494 18 14.0416 17.4725 14.0416 16.822V1.17801C14.0416 0.527412 14.5494 0 15.1758 0Z" fill="#1FCB4F"/>
<path d="M9.84498 4.54711H8.155C7.52859 4.54711 7.02079 5.07452 7.02079 5.72512V16.822C7.02079 17.4726 7.52859 18 8.155 18H9.84498C10.4714 18 10.9792 17.4726 10.9792 16.822V5.72512C10.9792 5.07452 10.4714 4.54711 9.84498 4.54711Z" fill="#1FCB4F"/>
<path d="M2.82419 8.99997H1.13421C0.507805 8.99997 0 9.52739 0 10.178V16.8219C0 17.4725 0.507805 18 1.13421 18H2.82419C3.4506 18 3.9584 17.4725 3.9584 16.8219V10.178C3.9584 9.52739 3.4506 8.99997 2.82419 8.99997Z" fill="#1FCB4F"/>
</svg>
